HIERARCHY
ROOT hips
{
  OFFSET 0 9.313263304106702 1.2146308026317778
  CHANNELS 6 Xposition Yposition Zposition Yrotation Xrotation Zrotation
  JOINT spine
  {
    OFFSET -6.402521e-31 0.5173342420023708 0
    CHANNELS 3 Yrotation Xrotation Zrotation
    JOINT chest
    {
      OFFSET 0 1.130544299341115 0
      CHANNELS 3 Yrotation Xrotation Zrotation
      JOINT upperChest
      {
        OFFSET 0 1.0863555061129995 0
        CHANNELS 3 Yrotation Xrotation Zrotation
        JOINT neck
        {
          OFFSET 0 1.3773706506454462 0
          CHANNELS 3 Yrotation Xrotation Zrotation
          JOINT head
          {
            OFFSET 0 0.7374408940073979 0
            CHANNELS 3 Yrotation Xrotation Zrotation
            JOINT leftEye
            {
              OFFSET 0.25066580148932727 0.6408406698778757 0.15963719178883284
              CHANNELS 3 Yrotation Xrotation Zrotation
              End Site
              {
                OFFSET 0.25066580148932727 0.6408406698778757 0.15963719178883284
              }
            }
            JOINT rightEye
            {
              OFFSET -0.25066576739704244 0.6408406384191823 0.15963727561643756
              CHANNELS 3 Yrotation Xrotation Zrotation
              End Site
              {
                OFFSET -0.25066576739704244 0.6408406384191823 0.15963727561643756
              }
            }
          }
        }
        JOINT leftShoulder
        {
          OFFSET 0.3761817444281191 1.0539491987447769 0
          CHANNELS 3 Yrotation Xrotation Zrotation
          JOINT leftUpperArm
          {
            OFFSET 0.8702844380000002 0 0
            CHANNELS 3 Yrotation Xrotation Zrotation
            JOINT leftLowerArm
            {
              OFFSET 2.198527310000323 0 0
              CHANNELS 3 Yrotation Xrotation Zrotation
              JOINT leftHand
              {
                OFFSET 2.146852313968281 0 0
                CHANNELS 3 Yrotation Xrotation Zrotation
                JOINT leftIndexProximal
                {
                  OFFSET 0.6585177834681599 0.07380250427007962 0.18382213159631788
                  CHANNELS 3 Yrotation Xrotation Zrotation
                  JOINT leftIndexIntermediate
                  {
                    OFFSET 0.3323021288626682 -0.009606893929485771 -0.012820872253340998
                    CHANNELS 3 Yrotation Xrotation Zrotation
                    JOINT leftIndexDistal
                    {
                      OFFSET 0.2045908926985518 -0.0071133989147997845 -0.006828784783599051
                      CHANNELS 3 Yrotation Xrotation Zrotation
                      End Site
                      {
                        OFFSET 0.2045908926985518 -0.0071133989147997845 -0.006828784783599051
                      }
                    }
                  }
                }
                JOINT leftLittleProximal
                {
                  OFFSET 0.6110054258835662 0.07380246363125398 -0.29175655876064077
                  CHANNELS 3 Yrotation Xrotation Zrotation
                  JOINT leftLittleIntermediate
                  {
                    OFFSET 0.3144281999999998 -2.5124724523095665e-9 1.8658118799974588e-7
                    CHANNELS 3 Yrotation Xrotation Zrotation
                    JOINT leftLittleDistal
                    {
                      OFFSET 0.18116185580251631 0.002815456192251098 0.0034826415518049436
                      CHANNELS 3 Yrotation Xrotation Zrotation
                      End Site
                      {
                        OFFSET 0.18116185580251631 0.002815456192251098 0.0034826415518049436
                      }
                    }
                  }
                }
                JOINT leftMiddleProximal
                {
                  OFFSET 0.6637478005691111 0.07380246480054087 0.02046981859247815
                  CHANNELS 3 Yrotation Xrotation Zrotation
                  JOINT leftMiddleIntermediate
                  {
                    OFFSET 0.3705733999999994 -2.9611069152224445e-9 9.35054791928458e-8
                    CHANNELS 3 Yrotation Xrotation Zrotation
                    JOINT leftMiddleDistal
                    {
                      OFFSET 0.22861063500000056 -1.82673876025774e-9 -1.6740782024515788e-7
                      CHANNELS 3 Yrotation Xrotation Zrotation
                      End Site
                      {
                        OFFSET 0.22861063500000056 -1.82673876025774e-9 -1.6740782024515788e-7
                      }
                    }
                  }
                }
                JOINT leftRingProximal
                {
                  OFFSET 0.6561845547265777 0.07380246406440083 -0.13588087571513918
                  CHANNELS 3 Yrotation Xrotation Zrotation
                  JOINT leftRingIntermediate
                  {
                    OFFSET 0.3437531000000005 -2.746796123886952e-9 1.4935781944558357e-7
                    CHANNELS 3 Yrotation Xrotation Zrotation
                    JOINT leftRingDistal
                    {
                      OFFSET 0.1983118991198174 -0.002467117924596085 -0.004538141969590015
                      CHANNELS 3 Yrotation Xrotation Zrotation
                      End Site
                      {
                        OFFSET 0.1983118991198174 -0.002467117924596085 -0.004538141969590015
                      }
                    }
                  }
                }
                JOINT leftThumbProximal
                {
                  OFFSET 0.09767004258864787 -0.14930060425447422 -0.07008212897521154
                  CHANNELS 3 Yrotation Xrotation Zrotation
                  JOINT leftThumbIntermediate
                  {
                    OFFSET 0.36682123028154767 -0.015768465060082004 0.28693641268151077
                    CHANNELS 3 Yrotation Xrotation Zrotation
                    JOINT leftThumbDistal
                    {
                      OFFSET 0.21091084272403915 -0.016756648201192714 0.1933767059105508
                      CHANNELS 3 Yrotation Xrotation Zrotation
                      End Site
                      {
                        OFFSET 0.21091084272403915 -0.016756648201192714 0.1933767059105508
                      }
                    }
                  }
                }
              }
            }
          }
        }
        JOINT rightShoulder
        {
          OFFSET -0.37618174442811925 1.0539491987447769 0
          CHANNELS 3 Yrotation Xrotation Zrotation
          JOINT rightUpperArm
          {
            OFFSET -0.870284438 0 0
            CHANNELS 3 Yrotation Xrotation Zrotation
            JOINT rightLowerArm
            {
              OFFSET -2.1985273100003235 0 0
              CHANNELS 3 Yrotation Xrotation Zrotation
              JOINT rightHand
              {
                OFFSET -2.1468523139682802 0 0
                CHANNELS 3 Yrotation Xrotation Zrotation
                JOINT rightIndexProximal
                {
                  OFFSET -0.6585177834681599 0.07380250427007962 0.18382213159631788
                  CHANNELS 3 Yrotation Xrotation Zrotation
                  JOINT rightIndexIntermediate
                  {
                    OFFSET -0.3323021288626682 -0.009606893929485771 -0.012820872253340998
                    CHANNELS 3 Yrotation Xrotation Zrotation
                    JOINT rightIndexDistal
                    {
                      OFFSET -0.2045908926985518 -0.0071133989147997845 -0.006828784783599051
                      CHANNELS 3 Yrotation Xrotation Zrotation
                      End Site
                      {
                        OFFSET -0.2045908926985518 -0.0071133989147997845 -0.006828784783599051
                      }
                    }
                  }
                }
                JOINT rightLittleProximal
                {
                  OFFSET -0.6110054258835662 0.07380246363125398 -0.29175655876064077
                  CHANNELS 3 Yrotation Xrotation Zrotation
                  JOINT rightLittleIntermediate
                  {
                    OFFSET -0.3144281999999998 -2.5124724523095665e-9 1.8658118799974588e-7
                    CHANNELS 3 Yrotation Xrotation Zrotation
                    JOINT rightLittleDistal
                    {
                      OFFSET -0.18116185580251631 0.002815456192251098 0.0034826415518049436
                      CHANNELS 3 Yrotation Xrotation Zrotation
                      End Site
                      {
                        OFFSET -0.18116185580251631 0.002815456192251098 0.0034826415518049436
                      }
                    }
                  }
                }
                JOINT rightMiddleProximal
                {
                  OFFSET -0.6637478005691111 0.07380246480054087 0.02046981859247815
                  CHANNELS 3 Yrotation Xrotation Zrotation
                  JOINT rightMiddleIntermediate
                  {
                    OFFSET -0.3705733999999994 -2.9611069152224445e-9 9.35054791928458e-8
                    CHANNELS 3 Yrotation Xrotation Zrotation
                    JOINT rightMiddleDistal
                    {
                      OFFSET -0.22861063500000056 -1.82673876025774e-9 -1.6740782024515788e-7
                      CHANNELS 3 Yrotation Xrotation Zrotation
                      End Site
                      {
                        OFFSET -0.22861063500000056 -1.82673876025774e-9 -1.6740782024515788e-7
                      }
                    }
                  }
                }
                JOINT rightRingProximal
                {
                  OFFSET -0.6561845547265777 0.07380246406440083 -0.13588087571513918
                  CHANNELS 3 Yrotation Xrotation Zrotation
                  JOINT rightRingIntermediate
                  {
                    OFFSET -0.3437531000000005 -2.746796123886952e-9 1.4935781944558357e-7
                    CHANNELS 3 Yrotation Xrotation Zrotation
                    JOINT rightRingDistal
                    {
                      OFFSET -0.1983118991198174 -0.002467117924596085 -0.004538141969590015
                      CHANNELS 3 Yrotation Xrotation Zrotation
                      End Site
                      {
                        OFFSET -0.1983118991198174 -0.002467117924596085 -0.004538141969590015
                      }
                    }
                  }
                }
                JOINT rightThumbProximal
                {
                  OFFSET -0.09767004258864787 -0.14930060425447422 -0.07008212897521154
                  CHANNELS 3 Yrotation Xrotation Zrotation
                  JOINT rightThumbIntermediate
                  {
                    OFFSET -0.36682123028154767 -0.015768465060082004 0.28693641268151077
                    CHANNELS 3 Yrotation Xrotation Zrotation
                    JOINT rightThumbDistal
                    {
                      OFFSET -0.21091084272403915 -0.016756648201192714 0.1933767059105508
                      CHANNELS 3 Yrotation Xrotation Zrotation
                      End Site
                      {
                        OFFSET -0.21091084272403915 -0.016756648201192714 0.1933767059105508
                      }
                    }
                  }
                }
              }
            }
          }
        }
      }
    }
  }
  JOINT leftUpperLeg
  {
    OFFSET 0.7715603 -0.3993844658041501 0
    CHANNELS 3 Yrotation Xrotation Zrotation
    JOINT leftLowerLeg
    {
      OFFSET 0 -3.529830000249343 0
      CHANNELS 3 Yrotation Xrotation Zrotation
      JOINT leftFoot
      {
        OFFSET 0 -4.154939295409685 0.004208579085223096
        CHANNELS 3 Yrotation Xrotation Zrotation
        JOINT leftToes
        {
          OFFSET 0 -0.6353414391261847 1.10414981190622
          CHANNELS 3 Yrotation Xrotation Zrotation
          End Site
          {
            OFFSET 0 -0.6015820691747853 1.10414981190622
          }
        }
      }
    }
  }
  JOINT rightUpperLeg
  {
    OFFSET -0.7715603 -0.3993844658041501 0
    CHANNELS 3 Yrotation Xrotation Zrotation
    JOINT rightLowerLeg
    {
      OFFSET 0 -3.529830000249343 0
      CHANNELS 3 Yrotation Xrotation Zrotation
      JOINT rightFoot
      {
        OFFSET 0 -4.154939295409685 0.004208579085223096
        CHANNELS 3 Yrotation Xrotation Zrotation
        JOINT rightToes
        {
          OFFSET 0 -0.6353414391261847 1.10414981190622
          CHANNELS 3 Yrotation Xrotation Zrotation
          End Site
          {
            OFFSET 0 -0.6015820691747853 1.10414981190622
          }
        }
      }
    }
  }
}
MOTION
Frames: 4
Frame Time: 0.03333333333333333
0.28158989819613367 9.029013893821022 1.2185816694176943 114.1644702456398 1.9361941512389822 -0.905332200892249 1.1881385639449722 -2.3447962996517044 -0.1559361845548465 2.3855973219012307 -4.68585829633701 -0.3610033250588206 0 0 0 6.961611240209705 4.144087429159161 -7.14572433319306 14.416713452504228 9.107517206250863 9.77135934899701 0 0 0 0 0 0 8.342674644043973 0.08960393421428779 -2.6483981481050374 5.48425669843783 -0.728716360273213 -48.79702070474191 -0.16286693541815717 28.820039298241888 -0.21108896386106277 4.389468845555551 -7.915254845231194 60.86387784131725 9.074947613320674 0.715118722142853 -20.132401315232084 0.000007279763474903449 -7.102554545271383e-8 -15.386403607192628 -0.000003766142735641104 0.000003288794707716586 4.259280869751373 17.605222861509283 -12.422026532997824 -15.928564634834425 0.000019237176963832384 0.000008940417279849713 -16.796397270111655 0.000004930609654729015 8.301125076431261e-7 -9.556639359456694 6.76675154077762 2.934190139531066 -23.33598736493283 0.000005634802577644497 0.0000028721068293434317 -8.573377318720512 0.000005104956975703114 -0.0000028176966478521985 -2.0671189797318483 10.31534017987224 -5.909552010393713 -23.924988710235095 0.0000076924974912521 0.0000021966952291848175 -15.937398695660674 0.000004919461734237174 0.0000031303184054918632 -1.5053780117252569 28.61360369267325 4.362266219184694 -34.668401972156154 -2.434152087602686 -2.089698599598235 1.7543704634406994 0.6078480210865507 0.0000010211612011384033 -0.000001989278688854479 -2.092873688078366 -0.0609709958042051 -0.40769819073889063 -17.91471170586199 -11.166570367076416 53.96939629287487 1.3575496267051723 33.35420758263384 0.09229486052531663 -5.7143457827442505 -4.752228976524811 -39.622066379782076 -8.22560475281984 0.9655151329160383 22.503605899759474 -0.0000155028145341243 -0.0000021593440163387075 18.635498763544618 -8.071733295029131e-7 0.00000404332425946504 2.7466351387815466 -18.970277863228848 -12.503966236710424 14.993027081265259 -0.000009925642182419687 0.000010463347062201314 12.820604413533065 -0.000005614697400947656 0.0000029112151332622066 8.971746493273033 -4.558980504217484 2.3093412167755543 26.80935803040815 -0.0000065001349193861445 0.00000396840606494323 8.20595046019636 -7.123715793344657e-7 0.000003080994465269477 5.416093971471504 -6.065371982539412 -4.650601293983594 25.13050415889639 -0.000008744491040361463 0.000002352420275276762 8.716898340752973 -0.000005999997428391378 5.903470879321968e-9 0.05637400220077309 -27.819795721744207 3.3729907846219267 34.73293291531086 -1.7372097645294613 -4.0051349875442845 -3.3681069288377117 -9.291051054676123 -0.000002278478332931099 -0.000007733597789290095 28.677075782354237 -0.4219811727412935 1.9795507050768064 -0.04505777197791547 7.117772431824138 0.45745746022141714 14.761752476580046 -4.68516913230184 -2.9513740741489767 -0.11870635318695029 0.7009511343330784 -0.0054959143476572695 -7.52359351113094 0.42577221823781275 2.599212120752471 0.006742923437070503 7.66203380475339 -0.7778772505009974 -7.889641662462763 -3.7574171009910127 -2.6020062975662093 0.5887080239832594 3.7243666849671233 0.21258868454162377
0.3167743574489246 9.023962887850674 1.2771602473262968 110.60552583583738 1.5334014973611712 -0.4766746739183873 1.2541112008442865 -2.2751755244836644 -0.31234929733453687 2.5235942437184358 -4.542950601579165 -0.6752962254701738 0 0 0 7.240667010702839 4.372349964063604 -7.257497835455368 15.046607931229161 9.131987469968744 10.18710377108726 0 0 0 0 0 0 8.236015214877321 0.08741512277779159 -2.8099077375820056 5.148501148243237 -0.6671032133962453 -49.41752021258672 0.04380775603552695 28.4213954424542 -0.21661455011674474 4.354444733610814 -7.818877079043073 60.7630813807733 9.030862162483224 0.6799400001342408 -20.131441509108832 0.00000904567989980982 -0.000002678745999816918 -15.50949804779074 0.00000114183093686438 0.000001922556249413615 4.141571121454002 17.546875407469415 -12.47013866157804 -16.071597685030248 0.00000966540380416161 0.0000060481378969390444 -16.781206413917516 -0.000001479316184559855 0.0000027949281509984117 -9.456689861092388 6.698711550435533 2.909081316649892 -23.36960751639495 0.000004641587307492564 0.0000027305071100361786 -8.665619239105268 0.0000040356827860095336 -8.445515134527219e-7 -2.216472118645161 10.254411790560471 -5.952752419622965 -24.022910610834217 0.000012224733970130076 0.000004533859223321038 -15.949898550649255 0.000007996845532054463 2.2464000726358557e-7 -1.6090771138858433 28.593151358782738 4.315984105759662 -34.699955637476734 -2.4327194408639023 -2.0819589225824697 1.7477684406269385 0.5747349967077315 0.000005039871733145662 -0.000003949644354543829 -2.0775569825241638 -0.0590239706064549 -0.38309196162079306 -18.07127269026908 -10.997887445368587 54.25506119889124 1.460450376248706 33.38439431455142 0.09216101196486295 -5.662609359470414 -4.721835832188352 -39.69943941751941 -8.133254319372814 1.0028818877660681 22.596840530510537 -0.000018059447182611762 -0.000003294902594037994 19.018002162033316 -0.0000038339206103474655 0.000003209525310835034 3.0641259744311156 -18.976131163909617 -12.507514173616197 15.014425930937492 -0.000010851923926077633 0.000010734791577824135 13.081606660902636 -0.000005608621676395188 0.000002922903290050023 9.091082978565717 -4.517480769636498 2.2800307153569053 26.726748478870398 -0.000008754618333578243 0.0000023144457754908352 8.468224044254827 -0.0000029855025092907103 2.9457399271073047e-7 5.635029049959554 -6.088997881988322 -4.673244003586246 25.058805194958637 -0.000010190099859073754 -4.023287680971565e-7 9.048936809106838 -0.000004997017193811977 0.0000010147998882199766 0.1696450093270567 -27.784096310103223 3.3759082783945007 34.75809455787159 -1.7799034711234551 -3.9980001097146265 -3.362077483072526 -9.404908976290685 -0.00000229384188781994 -0.000007729054430538717 28.908061481490638 -1.205282600799838 1.9741333373655667 -0.0427631394939223 9.963663237369046 0.6673190100555264 17.709653469061166 -4.5239514723180125 -4.385696650179829 -0.07550178027555099 0.445954597254046 -0.005147518808832258 -5.052518033891389 0.86006069074688 2.360746490748196 0.0011696712099798089 7.2444845658961 -0.7242905144179071 -6.751118253683514 -4.169933842064525 -3.253267858563288 0.6506605195970908 4.110474701676132 0.23687626448607876
0.34654584797945887 9.020499316128817 1.336381742607863 107.04309812066147 1.0012758006262077 -0.18021490453549505 1.323380349593241 -2.115586225140388 -0.4359667973191085 2.6657280495559017 -4.22050260139845 -0.9216811219010603 0 0 0 7.517870196951209 4.603479067876541 -7.274815795145336 15.673587736431429 8.965673729823171 10.592360087638113 0 0 0 0 0 0 8.03995081626959 0.08413360674026779 -2.9652999703585246 4.88150171077431 -0.8160125703951294 -49.93732308942976 0.09658176643918945 28.144768639708296 -0.2220656595095206 4.370267276028598 -7.8402188840463305 60.74028131263996 9.05566914013008 0.6602891089276045 -20.11912148050742 0.000008777259404689272 -0.0000017203837058643255 -15.47539908959335 2.1734376393543336e-7 0.0000029921166381396615 4.154600122158077 17.49617183329535 -12.486493991994916 -16.118396013764418 0.000014374120458538567 0.000004287734162073167 -16.609601248318146 0.0000034606938666968266 0.000003608822425098695 -9.330452072788855 6.689858897301698 2.907487616494137 -23.386023311070996 0.000005634904762505304 0.0000028719061236208123 -8.57133792881967 0.0000030755501698768055 -0.0000018817517175165597 -2.230008035244264 10.232211040120731 -5.9635031560472616 -24.051905520718325 0.000009080610837765522 0.00000464139148710195 -15.763100317761012 0.000004998072425521975 1.3883331101197228e-7 -1.5911170503932102 28.575744677503266 4.282435438397912 -34.703126798940005 -2.4377575647799565 -2.089923291511044 1.754318902483816 0.55706603964959 0.000005028931439263426 -0.000002951245950705227 -2.0086042554561723 -0.05597813825935234 -0.295468442250873 -18.043929648348076 -10.80021976366553 54.45058876039289 1.406258989049231 33.35449786843778 0.09195611062430362 -5.536603376018875 -4.639915366787825 -39.84561217339483 -8.039395940055336 1.0674674950554897 22.786363648278964 -0.000016754035992925467 5.49751955803982e-7 19.23340378000847 -0.000002823340224078984 0.0000031668201812380854 3.2817870595925704 -18.91529316846031 -12.507166111591378 14.934616117615798 -0.000010603372890385375 0.000011728958266381292 13.190202881172763 -0.000005605354610626388 0.000002929164046551641 9.155062791259788 -4.474021223316302 2.2566764333574607 26.713429856864536 -0.000007461178649935132 0.000004163027920789851 8.603654423281546 -0.000003879191353461544 0.0000013970950293784058 5.770296452734291 -6.042400213628325 -4.669116385287021 24.971777744292396 -0.000008057154141258 2.868178157312012e-7 9.16376547760603 -0.000003999973451823307 1.4588755865663065e-8 0.2089690122070178 -27.807722515523334 3.395084630701518 34.769192526947805 -1.8514958638405927 -4.021564742940011 -3.3819786782578083 -9.51056321965819 0.00000410512859447974 -0.000005757422782167771 28.41123555824162 -2.2860428524146927 2.0014578062303228 -0.02098962887266171 13.397608773897087 0.9276567209292431 21.353389124211354 -4.111054197284025 -5.789839728746563 -0.034102841068164955 0.2014866735674216 -0.0022899130698018884 -2.8184752185211908 1.1867866876195488 2.271361458887923 -0.009226000804851357 7.260170938195244 -0.7079568563057675 -5.436549701231552 -4.4854849733491164 -3.9102982866406184 0.6928916739570713 4.371958650754171 0.25358643027911953
0.3692866184494712 9.01507637717507 1.3974075653123517 103.37718380286871 0.34185939962265727 -0.10252224230435274 1.3698764745655432 -1.8957596633215625 -0.4626519607449177 2.757425329945649 -3.779852841875779 -0.9713593091332635 0 0 0 7.861213324699918 4.8262110650403125 -7.29450851276917 16.42439218051771 8.802045235799667 10.967625010853055 0 0 0 0 0 0 7.871463288419799 0.08145927806275627 -3.0773149520867547 4.717253311124097 -0.9819153980455911 -50.5116133699988 0.08958204603626273 28.07725747356846 -0.22744127339830914 4.366159569693547 -7.855787268013979 60.81146885913607 9.064368685324792 0.6408436941603824 -20.047895761964256 0.00000930437369893683 -0.000003664508288906007 -15.372999145336394 -0.0000027721221999326924 0.0000032117499688903118 4.201899788018909 17.486170714177238 -12.473650283585089 -16.074818588529517 0.000014381380061876785 0.000004263318087005507 -16.51230370889099 8.256310297636316e-7 0.0000011481869573398168 -9.2810790229789 6.731523358579356 2.9134334952166867 -23.297115564963807 0.000003663595546045732 0.0000025647740542502285 -8.429667940502128 0.0000030728935670513475 -0.0000018860870425473313 -2.1492099995229395 10.21415319119608 -5.945490812796304 -23.996732553814642 0.000009362252669696978 0.00000365352117725886 -15.607102492583524 0.000008916250356713473 0.0000032404451876708506 -1.5377849210553687 28.557322406508494 4.270527574056365 -34.70178684403235 -2.404743204039389 -2.086300458713259 1.7516761980800875 0.6502389866103261 0.0000010339813300595716 -0.0000029884583387006 -1.90294811636667 -0.05306320029857944 -0.2782983368748358 -17.94850227209626 -10.814252835718548 54.661082724360284 1.2588093899900918 33.207981470908905 0.09169035558242189 -5.58329608106974 -4.672201924368818 -39.802540442842435 -7.949513715337012 1.2177899791588915 23.147170456245913 -0.000017417195384006774 -0.000001281141979911727 19.422496523090558 -0.0000036889675177395775 0.0000052336911732128065 3.4817112400806773 -18.779301405867614 -12.463643685336537 14.910416183887685 -0.000010619209508255318 0.0000117146222596545 13.112794868213667 -0.000004780096240093681 0.0000017750153557391382 9.061774687119987 -4.464747022639204 2.255872622630092 26.750027414013147 -0.00000747511080255069 0.000004137960875234427 8.411340421317524 -0.000003980809922867679 3.913486282258711e-7 5.614637600273124 -5.963061104215322 -4.63152392221067 25.00727799642546 -0.000007901182589456026 0.0000012535190915031535 9.014817242315956 -0.00000399999828559426 3.5897227044310836e-9 0.05141899907277073 -27.847934837411433 3.418992635619343 34.76928957151976 -1.8387944567331662 -4.007065390716349 -3.369744796427512 -9.531543329125629 -4.9677170080866e-7 -0.0000029585837193553005 27.246458125560828 -3.624958065390792 2.1191350049185425 0.027422923268815087 17.34427320149043 1.2220105746959795 25.736338675031195 -3.41951928426094 -7.157833138008595 0.04416286478571748 -0.260921198450889 0.0027838558105517295 -0.5938447108652231 1.4130054218244892 2.4053764272690086 -0.021912253947663666 7.678489827470086 -0.724389497714466 -3.9666344858647378 -4.76379177895462 -4.430105380935463 0.7105007862233981 4.489266830690037 0.26094746398043867
